<?xml version="1.0" encoding="UTF-8" standalone="no"?>
<svg
   xmlns:dc="http://purl.org/dc/elements/1.1/"
   xmlns:cc="http://creativecommons.org/ns#"
   xmlns:rdf="http://www.w3.org/1999/02/22-rdf-syntax-ns#"
   xmlns:svg="http://www.w3.org/2000/svg"
   xmlns="http://www.w3.org/2000/svg"
   xmlns:xlink="http://www.w3.org/1999/xlink"
   version="1.1"
   id="svg3399"
   viewBox="0 0 744.09448819 1052.3622047"
   height="297mm"
   width="210mm">
  <defs
     id="defs3401">
    <linearGradient
       id="linearGradient3422">
      <stop
         id="stop3424"
         offset="0"
         style="stop-color:#ffffff;stop-opacity:1;" />
      <stop
         id="stop3426"
         offset="1"
         style="stop-color:#ffffff;stop-opacity:0;" />
    </linearGradient>
    <linearGradient
       gradientUnits="userSpaceOnUse"
       y2="297.77826"
       x2="382.84781"
       y1="289.69702"
       x1="139.40105"
       id="linearGradient3428"
       xlink:href="#linearGradient3422" />
  </defs>
  <metadata
     id="metadata3404">
    <rdf:RDF>
      <cc:Work
         rdf:about="">
        <dc:format>image/svg+xml</dc:format>
        <dc:type
           rdf:resource="http://purl.org/dc/dcmitype/StillImage" />
        <dc:title></dc:title>
      </cc:Work>
    </rdf:RDF>
  </metadata>
  <g
     style="display:inline"
     id="layer1">
    <circle
       r="67.14286"
       cy="173.79077"
       cx="410"
       id="path3418"
       style="fill:#ffffff" />
    <rect
       y="238.17926"
       x="124.24876"
       height="120.20815"
       width="271.73105"
       id="rect3420"
       style="fill:url(#linearGradient3428);fill-opacity:1" />
    <g
       id="text3430"
       style="font-style:normal;font-weight:normal;font-size:40px;line-height:125%;font-family:sans-serif;letter-spacing:0px;word-spacing:0px;fill:#ffffff;fill-opacity:1;stroke:none;stroke-width:1px;stroke-linecap:butt;stroke-linejoin:miter;stroke-opacity:1">
      <path
         id="path4291"
         style=""
         d="m 375.50568,258.73065 3.59375,0 0,21.875 -3.59375,0 0,-21.875 z m 0,-8.51562 3.59375,0 0,4.55078 -3.59375,0 0,-4.55078 z" />
      <path
         id="path4293"
         style=""
         d="m 404.78302,267.40253 0,13.20312 -3.59375,0 0,-13.08594 q 0,-3.10546 -1.21094,-4.64843 -1.21093,-1.54297 -3.63281,-1.54297 -2.91016,0 -4.58984,1.85547 -1.67969,1.85547 -1.67969,5.05859 l 0,12.36328 -3.61328,0 0,-21.875 3.61328,0 0,3.39844 q 1.28906,-1.97266 3.02734,-2.94922 1.75782,-0.97656 4.04297,-0.97656 3.76953,0 5.70313,2.34375 1.93359,2.32422 1.93359,6.85547 z" />
      <path
         id="path4295"
         style=""
         d="m 411.85333,250.21503 3.61328,0 0,17.94922 10.72266,-9.4336 4.58984,0 -11.60156,10.23438 12.08985,11.64062 -4.6875,0 -11.11329,-10.68359 0,10.68359 -3.61328,0 0,-30.39062 z" />
      <path
         id="path4297"
         style=""
         d="m 449.06036,259.37518 0,3.39844 q -1.52343,-0.78125 -3.16406,-1.17187 -1.64062,-0.39063 -3.39844,-0.39063 -2.67578,0 -4.02343,0.82031 -1.32813,0.82032 -1.32813,2.46094 0,1.25 0.95703,1.97266 0.95703,0.70312 3.84766,1.34765 l 1.23047,0.27344 q 3.82812,0.82031 5.42969,2.32422 1.62109,1.48437 1.62109,4.16016 0,3.04687 -2.42188,4.82421 -2.40234,1.77735 -6.62109,1.77735 -1.75781,0 -3.67187,-0.35156 -1.89454,-0.33204 -4.00391,-1.01563 l 0,-3.71094 q 1.99219,1.03516 3.92578,1.5625 1.93359,0.50782 3.82813,0.50782 2.53906,0 3.90625,-0.85938 1.36718,-0.87891 1.36718,-2.46094 0,-1.46484 -0.99609,-2.24609 -0.97656,-0.78125 -4.31641,-1.50391 l -1.25,-0.29297 q -3.33984,-0.70312 -4.82422,-2.14843 -1.48437,-1.46485 -1.48437,-4.00391 0,-3.08594 2.1875,-4.76562 2.1875,-1.67969 6.21094,-1.67969 1.99218,0 3.75,0.29297 1.75781,0.29297 3.24218,0.8789 z" />
      <path
         id="path4299"
         style=""
         d="m 471.71661,259.5705 0,3.35937 q -1.52343,-0.83984 -3.0664,-1.25 -1.52344,-0.42969 -3.08594,-0.42969 -3.49609,0 -5.42969,2.22657 -1.93359,2.20703 -1.93359,6.21093 0,4.00391 1.93359,6.23047 1.9336,2.20703 5.42969,2.20703 1.5625,0 3.08594,-0.41015 1.54297,-0.42969 3.0664,-1.26953 l 0,3.32031 q -1.5039,0.70312 -3.125,1.05469 -1.60156,0.35156 -3.41796,0.35156 -4.94141,0 -7.85157,-3.10547 -2.91015,-3.10547 -2.91015,-8.37891 0,-5.35156 2.92968,-8.41797 2.94922,-3.0664 8.06641,-3.0664 1.66016,0 3.24219,0.35156 1.58203,0.33203 3.0664,1.01563 z" />
      <path
         id="path4301"
         style=""
         d="m 487.86896,269.60956 q -4.35547,0 -6.03516,0.99609 -1.67969,0.9961 -1.67969,3.39844 0,1.91406 1.25,3.04687 1.26954,1.11329 3.4375,1.11329 2.98829,0 4.78516,-2.10938 1.81641,-2.12891 1.81641,-5.64453 l 0,-0.80078 -3.57422,0 z m 7.16797,-1.48438 0,12.48047 -3.59375,0 0,-3.32031 q -1.23047,1.99219 -3.06641,2.94922 -1.83594,0.9375 -4.49219,0.9375 -3.35937,0 -5.35156,-1.875 -1.97266,-1.89453 -1.97266,-5.0586 0,-3.6914 2.46094,-5.5664 2.48047,-1.875 7.38281,-1.875 l 5.03907,0 0,-0.35156 q 0,-2.48047 -1.64063,-3.82813 -1.62109,-1.36719 -4.57031,-1.36719 -1.875,0 -3.65234,0.44922 -1.77735,0.44922 -3.41797,1.34766 l 0,-3.32031 q 1.97265,-0.76172 3.82812,-1.13282 1.85547,-0.39062 3.61328,-0.39062 4.7461,0 7.08985,2.46094 2.34375,2.46093 2.34375,7.46093 z" />
      <path
         id="path4303"
         style=""
         d="m 506.01349,277.3244 0,11.60156 -3.61328,0 0,-30.19531 3.61328,0 0,3.32031 q 1.13281,-1.95312 2.85156,-2.89062 1.73828,-0.95703 4.14063,-0.95703 3.98437,0 6.46484,3.16406 2.5,3.16406 2.5,8.32031 0,5.15625 -2.5,8.32032 -2.48047,3.16406 -6.46484,3.16406 -2.40235,0 -4.14063,-0.9375 -1.71875,-0.95703 -2.85156,-2.91016 z m 12.22656,-7.63672 q 0,-3.96484 -1.64062,-6.21093 -1.6211,-2.26563 -4.47266,-2.26563 -2.85156,0 -4.49219,2.26563 -1.62109,2.24609 -1.62109,6.21093 0,3.96485 1.62109,6.23047 1.64063,2.2461 4.49219,2.2461 2.85156,0 4.47266,-2.2461 1.64062,-2.26562 1.64062,-6.23047 z" />
      <path
         id="path4305"
         style=""
         d="m 546.63849,268.76971 0,1.75782 -16.52344,0 q 0.23438,3.71093 2.22656,5.66406 2.01172,1.93359 5.58594,1.93359 2.07031,0 4.00391,-0.50781 1.95312,-0.50781 3.86719,-1.52344 l 0,3.39844 q -1.9336,0.82031 -3.96485,1.25 -2.03125,0.42969 -4.12109,0.42969 -5.23438,0 -8.30078,-3.04688 -3.04688,-3.04687 -3.04688,-8.24218 0,-5.3711 2.89063,-8.51563 2.91015,-3.16406 7.83203,-3.16406 4.41406,0 6.97265,2.85156 2.57813,2.83203 2.57813,7.71484 z m -3.59375,-1.05468 q -0.0391,-2.94922 -1.66016,-4.70703 -1.60156,-1.75782 -4.25781,-1.75782 -3.00781,0 -4.82422,1.69922 -1.79687,1.69922 -2.07031,4.78516 l 12.8125,-0.0195 z" />
    </g>
    <path
       d="m 471.74122,344.24526 -24.0215,61.97497 37.43535,54.92289 -66.36475,-3.69448 -40.66662,52.57523 -16.99417,-64.25829 -62.5687,-22.42961 55.86177,-36.01932 1.99704,-66.4375 51.51865,41.99713 z"
       id="path3434"
       style="fill:#ffffff;stroke:#ffffff;stroke-opacity:0.67515922;fill-opacity:0" />
  </g>
</svg>
